<svg xmlns="http://www.w3.org/2000/svg" width="299" height="320" viewBox="0 0 299 320" version="1.1"><path d="M 123.385 1.945 C 117.821 2.924, 108.821 5.183, 103.385 6.965 C 97.948 8.746, 89.401 12.160, 84.392 14.551 C 79.382 16.942, 71.282 21.598, 66.392 24.898 C 61.501 28.197, 54.266 33.733, 50.312 37.199 C 46.359 40.664, 40.351 46.650, 36.960 50.500 C 33.570 54.350, 27.928 61.800, 24.424 67.056 C 20.919 72.312, 16.247 80.465, 14.040 85.175 C 11.833 89.884, 8.646 97.959, 6.957 103.119 C 5.269 108.278, 3.013 117.607, 1.944 123.849 C 0.715 131.023, 0.002 139.853, 0.006 147.849 C 0.009 154.807, 0.689 165, 1.516 170.500 C 2.344 176, 3.930 183.875, 5.041 188 C 6.152 192.125, 8.619 199.562, 10.522 204.526 C 12.425 209.490, 16.283 217.590, 19.095 222.526 C 21.908 227.462, 26.684 234.810, 29.708 238.856 C 32.733 242.902, 38.423 249.598, 42.354 253.736 C 46.284 257.874, 54.223 264.806, 59.994 269.140 C 66.178 273.783, 75.421 279.451, 82.494 282.937 C 89.098 286.191, 98.775 290.198, 104 291.841 C 109.225 293.485, 117.325 295.568, 122 296.471 C 126.675 297.373, 136.125 298.373, 143 298.693 C 150.428 299.039, 159.732 298.781, 165.928 298.060 C 171.664 297.391, 180.664 295.755, 185.928 294.422 C 191.193 293.090, 199.562 290.429, 204.526 288.509 C 209.490 286.589, 217.590 282.717, 222.526 279.905 C 227.462 277.092, 234.810 272.316, 238.856 269.292 C 242.902 266.267, 249.598 260.577, 253.736 256.646 C 257.874 252.716, 264.806 244.777, 269.140 239.006 C 273.783 232.822, 279.451 223.579, 282.937 216.506 C 286.191 209.902, 290.256 200.045, 291.971 194.599 C 293.686 189.154, 295.797 180.154, 296.662 174.599 C 297.528 169.045, 298.633 163.719, 299.118 162.764 C 299.603 161.809, 300 154.421, 300 146.347 C 300 138.273, 299.684 131.983, 299.298 132.369 C 298.912 132.755, 297.849 128.615, 296.935 123.170 C 296.022 117.725, 293.817 108.821, 292.035 103.385 C 290.254 97.948, 286.840 89.401, 284.449 84.392 C 282.058 79.382, 277.402 71.282, 274.102 66.392 C 270.803 61.501, 265.267 54.266, 261.801 50.312 C 258.336 46.359, 252.350 40.351, 248.500 36.960 C 244.650 33.570, 237.200 27.928, 231.944 24.424 C 226.688 20.919, 218.535 16.247, 213.825 14.040 C 209.116 11.833, 201.041 8.646, 195.881 6.957 C 190.722 5.269, 181.393 3.013, 175.151 1.944 C 167.082 0.562, 159.422 0.024, 148.651 0.082 C 138.925 0.134, 129.878 0.801, 123.385 1.945 M 130.585 25.107 C 127.331 25.581, 121.261 26.905, 117.094 28.048 C 112.928 29.191, 106.199 31.455, 102.142 33.080 C 98.084 34.704, 91.839 37.670, 88.262 39.670 C 84.686 41.670, 78.327 45.865, 74.130 48.992 C 69.934 52.119, 63.115 58.238, 58.979 62.589 C 54.842 66.940, 49.322 73.492, 46.712 77.150 C 44.103 80.807, 39.935 87.782, 37.451 92.650 C 34.967 97.517, 31.599 105.668, 29.967 110.763 C 28.335 115.858, 26.280 124.408, 25.402 129.763 C 24.235 136.872, 23.938 143.414, 24.301 154 C 24.705 165.796, 25.365 170.698, 27.840 180.287 C 29.611 187.150, 32.938 196.380, 35.804 202.381 C 38.512 208.049, 42.977 216.020, 45.727 220.096 C 48.477 224.171, 53.993 231.002, 57.985 235.277 C 61.978 239.552, 69.126 245.991, 73.872 249.587 C 78.617 253.182, 87.900 258.780, 94.500 262.026 C 101.100 265.272, 109.875 268.854, 114 269.985 C 118.125 271.117, 125.550 272.706, 130.500 273.517 C 135.450 274.328, 143.775 274.991, 149 274.990 C 154.225 274.989, 162.775 274.331, 168 273.529 C 173.225 272.726, 180.875 271.127, 185 269.976 C 189.125 268.825, 197.042 265.721, 202.593 263.078 C 208.144 260.435, 216.020 256.023, 220.096 253.273 C 224.171 250.523, 231.002 245.007, 235.277 241.015 C 239.552 237.022, 245.991 229.874, 249.587 225.128 C 253.182 220.383, 258.799 211.100, 262.068 204.500 C 266.020 196.521, 269.081 188.479, 271.202 180.500 C 274.277 168.937, 274.392 167.790, 274.368 149 C 274.346 131.250, 274.113 128.640, 271.771 119.915 C 270.356 114.643, 267.797 106.828, 266.083 102.547 C 264.369 98.267, 261.330 91.839, 259.330 88.262 C 257.330 84.686, 253.135 78.327, 250.008 74.130 C 246.881 69.934, 240.762 63.115, 236.411 58.979 C 232.060 54.842, 225.508 49.322, 221.850 46.712 C 218.193 44.103, 211.218 39.935, 206.350 37.451 C 201.483 34.967, 193.339 31.601, 188.252 29.972 C 183.166 28.342, 174.841 26.334, 169.752 25.509 C 164.664 24.683, 155.100 24.061, 148.500 24.126 C 141.900 24.191, 133.838 24.632, 130.585 25.107 M 78 126 L 78 133 82.500 133 C 86.236 133, 87 132.681, 87 131.122 C 87 130.090, 87.632 128.720, 88.405 128.079 C 89.278 127.354, 92.639 127.024, 97.274 127.206 L 104.737 127.500 91.369 148.920 C 80.265 166.710, 78 170.988, 78 174.170 L 78 178 98.500 178 L 119 178 119 169.601 L 119 161.201 114.500 160.843 L 110 160.486 110 164.274 C 110 166.431, 109.462 168.230, 108.750 168.451 C 108.063 168.665, 103.787 169.058, 99.250 169.325 C 94.553 169.602, 91 169.415, 91 168.893 C 91 168.387, 97.075 158.270, 104.500 146.409 C 113.831 131.502, 118 123.941, 118 121.921 L 118 119 98 119 L 78 119 78 126 M 126 122.500 C 126 125.567, 126.310 126, 128.500 126 L 131 126 131 147.587 L 131 169.174 128 170.306 C 125.506 171.247, 125 171.992, 125 174.719 L 125 178 136.060 178 L 147.121 178 146.810 174.289 C 146.558 171.273, 146.033 170.471, 144 170 C 142.058 169.551, 141.429 168.692, 141.183 166.158 C 140.937 163.635, 141.722 161.772, 144.638 157.947 C 146.713 155.226, 148.749 153, 149.161 153 C 149.574 153, 151.794 156.222, 154.094 160.161 C 156.394 164.099, 158.326 168.036, 158.388 168.910 C 158.454 169.842, 157.569 170.631, 156.250 170.819 C 154.416 171.080, 154 171.774, 154 174.570 L 154 178 165.500 178 L 177 178 177 174 C 177 170.429, 176.739 170, 174.567 170 C 172.575 170, 171.186 168.416, 166.894 161.250 C 164.012 156.438, 160.412 150.662, 158.894 148.416 L 156.133 144.333 163.631 135.166 C 169.352 128.173, 171.707 126, 173.565 126 C 175.681 126, 176 125.542, 176 122.500 L 176 119 165.500 119 L 155 119 155 122.500 C 155 125.333, 155.381 126, 157 126 C 158.100 126, 159 126.387, 159 126.860 C 159 127.332, 155.239 132.218, 150.641 137.715 L 142.283 147.711 141.657 138.189 C 141.239 131.822, 141.398 128.225, 142.138 127.333 C 142.747 126.600, 144.090 126, 145.122 126 C 146.602 126, 147 125.257, 147 122.500 L 147 119 136.500 119 L 126 119 126 122.500 M 181 122.434 C 181 125.436, 181.345 125.907, 183.750 126.184 C 186.216 126.467, 186.495 126.888, 186.450 130.250 C 186.423 132.313, 186.310 142.091, 186.200 151.981 L 186 169.962 183.500 170.589 C 181.448 171.104, 181 171.825, 181 174.608 L 181 178 193 178 L 205 178 205 174 L 205 170 201 170 L 197 170 197 161.500 L 197 153 208 153 L 219 153 219 148.534 L 219 144.068 208.250 143.784 L 197.500 143.500 197.208 135.750 L 196.916 128 205.958 128 L 215 128 215 131 C 215 133.648, 215.342 134, 217.918 134 C 219.523 134, 221.548 133.727, 222.418 133.393 C 223.649 132.921, 224 131.256, 224 125.893 L 224 119 202.500 119 L 181 119 181 122.434 M 0.402 148 C 0.402 156.525, 0.556 160.012, 0.743 155.750 C 0.931 151.488, 0.931 144.512, 0.743 140.250 C 0.556 135.988, 0.402 139.475, 0.402 148" stroke="none" fill="#dfa724" fill-rule="evenodd"/><path d="M 130.585 25.107 C 127.331 25.581, 121.261 26.905, 117.094 28.048 C 112.928 29.191, 106.199 31.455, 102.142 33.080 C 98.084 34.704, 91.839 37.670, 88.262 39.670 C 84.686 41.670, 78.327 45.865, 74.130 48.992 C 69.934 52.119, 63.115 58.238, 58.979 62.589 C 54.842 66.940, 49.322 73.492, 46.712 77.150 C 44.103 80.807, 39.935 87.782, 37.451 92.650 C 34.967 97.517, 31.599 105.668, 29.967 110.763 C 28.335 115.858, 26.280 124.408, 25.402 129.763 C 24.235 136.872, 23.938 143.414, 24.301 154 C 24.705 165.796, 25.365 170.698, 27.840 180.287 C 29.611 187.150, 32.938 196.380, 35.804 202.381 C 38.512 208.049, 42.977 216.020, 45.727 220.096 C 48.477 224.171, 53.993 231.002, 57.985 235.277 C 61.978 239.552, 69.126 245.991, 73.872 249.587 C 78.617 253.182, 87.900 258.780, 94.500 262.026 C 101.100 265.272, 109.875 268.854, 114 269.985 C 118.125 271.117, 125.550 272.706, 130.500 273.517 C 135.450 274.328, 143.775 274.991, 149 274.990 C 154.225 274.989, 162.775 274.331, 168 273.529 C 173.225 272.726, 180.875 271.127, 185 269.976 C 189.125 268.825, 197.042 265.721, 202.593 263.078 C 208.144 260.435, 216.020 256.023, 220.096 253.273 C 224.171 250.523, 231.002 245.007, 235.277 241.015 C 239.552 237.022, 245.991 229.874, 249.587 225.128 C 253.182 220.383, 258.799 211.100, 262.068 204.500 C 266.020 196.521, 269.081 188.479, 271.202 180.500 C 274.277 168.937, 274.392 167.790, 274.368 149 C 274.346 131.250, 274.113 128.640, 271.771 119.915 C 270.356 114.643, 267.797 106.828, 266.083 102.547 C 264.369 98.267, 261.330 91.839, 259.330 88.262 C 257.330 84.686, 253.135 78.327, 250.008 74.130 C 246.881 69.934, 240.762 63.115, 236.411 58.979 C 232.060 54.842, 225.508 49.322, 221.850 46.712 C 218.193 44.103, 211.218 39.935, 206.350 37.451 C 201.483 34.967, 193.339 31.601, 188.252 29.972 C 183.166 28.342, 174.841 26.334, 169.752 25.509 C 164.664 24.683, 155.100 24.061, 148.500 24.126 C 141.900 24.191, 133.838 24.632, 130.585 25.107 M 78 126 L 78 133 82.500 133 C 86.236 133, 87 132.681, 87 131.122 C 87 130.090, 87.632 128.720, 88.405 128.079 C 89.278 127.354, 92.639 127.024, 97.274 127.206 L 104.737 127.500 91.369 148.920 C 80.265 166.710, 78 170.988, 78 174.170 L 78 178 98.500 178 L 119 178 119 169.601 L 119 161.201 114.500 160.843 L 110 160.486 110 164.274 C 110 166.431, 109.462 168.230, 108.750 168.451 C 108.063 168.665, 103.787 169.058, 99.250 169.325 C 94.553 169.602, 91 169.415, 91 168.893 C 91 168.387, 97.075 158.270, 104.500 146.409 C 113.831 131.502, 118 123.941, 118 121.921 L 118 119 98 119 L 78 119 78 126 M 126 122.500 C 126 125.567, 126.310 126, 128.500 126 L 131 126 131 147.587 L 131 169.174 128 170.306 C 125.506 171.247, 125 171.992, 125 174.719 L 125 178 136.060 178 L 147.121 178 146.810 174.289 C 146.558 171.273, 146.033 170.471, 144 170 C 142.058 169.551, 141.429 168.692, 141.183 166.158 C 140.937 163.635, 141.722 161.772, 144.638 157.947 C 146.713 155.226, 148.749 153, 149.161 153 C 149.574 153, 151.794 156.222, 154.094 160.161 C 156.394 164.099, 158.326 168.036, 158.388 168.910 C 158.454 169.842, 157.569 170.631, 156.250 170.819 C 154.416 171.080, 154 171.774, 154 174.570 L 154 178 165.500 178 L 177 178 177 174 C 177 170.429, 176.739 170, 174.567 170 C 172.575 170, 171.186 168.416, 166.894 161.250 C 164.012 156.438, 160.412 150.662, 158.894 148.416 L 156.133 144.333 163.631 135.166 C 169.352 128.173, 171.707 126, 173.565 126 C 175.681 126, 176 125.542, 176 122.500 L 176 119 165.500 119 L 155 119 155 122.500 C 155 125.333, 155.381 126, 157 126 C 158.100 126, 159 126.387, 159 126.860 C 159 127.332, 155.239 132.218, 150.641 137.715 L 142.283 147.711 141.657 138.189 C 141.239 131.822, 141.398 128.225, 142.138 127.333 C 142.747 126.600, 144.090 126, 145.122 126 C 146.602 126, 147 125.257, 147 122.500 L 147 119 136.500 119 L 126 119 126 122.500 M 181 122.434 C 181 125.436, 181.345 125.907, 183.750 126.184 C 186.216 126.467, 186.495 126.888, 186.450 130.250 C 186.423 132.313, 186.310 142.091, 186.200 151.981 L 186 169.962 183.500 170.589 C 181.448 171.104, 181 171.825, 181 174.608 L 181 178 193 178 L 205 178 205 174 L 205 170 201 170 L 197 170 197 161.500 L 197 153 208 153 L 219 153 219 148.534 L 219 144.068 208.250 143.784 L 197.500 143.500 197.208 135.750 L 196.916 128 205.958 128 L 215 128 215 131 C 215 133.648, 215.342 134, 217.918 134 C 219.523 134, 221.548 133.727, 222.418 133.393 C 223.649 132.921, 224 131.256, 224 125.893 L 224 119 202.500 119 L 181 119 181 122.434 M 0.097 173.651 C 0.036 180.616, 0.734 189.061, 1.957 196.151 C 3.033 202.393, 5.331 211.775, 7.063 217 C 8.795 222.225, 12.167 230.599, 14.555 235.608 C 16.944 240.618, 21.598 248.718, 24.898 253.608 C 28.197 258.499, 33.733 265.734, 37.199 269.688 C 40.664 273.641, 46.650 279.649, 50.500 283.040 C 54.350 286.430, 61.800 292.072, 67.056 295.576 C 72.312 299.081, 80.465 303.753, 85.175 305.960 C 89.884 308.167, 97.959 311.354, 103.119 313.043 C 108.278 314.731, 117.607 316.987, 123.849 318.056 C 131.472 319.362, 139.895 320, 149.500 320 C 159.162 320, 167.483 319.365, 175.151 318.043 C 181.393 316.967, 190.775 314.669, 196 312.937 C 201.225 311.205, 209.599 307.833, 214.608 305.445 C 219.618 303.056, 227.718 298.402, 232.608 295.102 C 237.499 291.803, 244.734 286.267, 248.688 282.801 C 252.641 279.336, 258.649 273.350, 262.040 269.500 C 265.430 265.650, 271.072 258.200, 274.576 252.944 C 278.081 247.688, 282.753 239.535, 284.960 234.825 C 287.167 230.116, 290.343 222.071, 292.017 216.948 C 293.691 211.825, 295.771 203.329, 296.640 198.067 C 297.508 192.805, 298.636 187.600, 299.145 186.500 C 299.654 185.400, 299.942 179.325, 299.785 173 C 299.628 166.675, 299.224 162.175, 298.886 163 C 298.548 163.825, 297.556 169.045, 296.680 174.599 C 295.805 180.154, 293.686 189.154, 291.971 194.599 C 290.256 200.045, 286.191 209.902, 282.937 216.506 C 279.451 223.579, 273.783 232.822, 269.140 239.006 C 264.806 244.777, 257.874 252.716, 253.736 256.646 C 249.598 260.577, 242.902 266.267, 238.856 269.292 C 234.810 272.316, 227.462 277.092, 222.526 279.905 C 217.590 282.717, 209.490 286.589, 204.526 288.509 C 199.562 290.429, 191.193 293.090, 185.928 294.422 C 180.664 295.755, 171.664 297.391, 165.928 298.060 C 159.732 298.781, 150.428 299.039, 143 298.693 C 136.125 298.373, 126.675 297.373, 122 296.471 C 117.325 295.568, 109.225 293.485, 104 291.841 C 98.775 290.198, 89.098 286.191, 82.494 282.937 C 75.421 279.451, 66.178 273.783, 59.994 269.140 C 54.223 264.806, 46.284 257.874, 42.354 253.736 C 38.423 249.598, 32.733 242.902, 29.708 238.856 C 26.684 234.810, 21.908 227.462, 19.095 222.526 C 16.283 217.590, 12.425 209.490, 10.522 204.526 C 8.619 199.562, 6.139 192.080, 5.011 187.901 C 3.884 183.721, 2.339 176.296, 1.577 171.401 L 0.194 162.500 0.097 173.651 M 0.385 175 C 0.385 181.875, 0.545 184.688, 0.740 181.250 C 0.936 177.813, 0.936 172.188, 0.740 168.750 C 0.545 165.313, 0.385 168.125, 0.385 175" stroke="none" fill="#cb7b33" fill-rule="evenodd"/></svg>