<svg xmlns="http://www.w3.org/2000/svg" width="299" height="320" viewBox="0 0 299 320" version="1.1"><path d="M 123.385 1.945 C 117.821 2.924, 108.821 5.183, 103.385 6.965 C 97.948 8.746, 89.401 12.160, 84.392 14.551 C 79.382 16.942, 71.282 21.598, 66.392 24.898 C 61.501 28.197, 54.266 33.733, 50.312 37.199 C 46.359 40.664, 40.351 46.650, 36.960 50.500 C 33.570 54.350, 27.928 61.800, 24.424 67.056 C 20.919 72.312, 16.247 80.465, 14.040 85.175 C 11.833 89.884, 8.645 97.959, 6.955 103.119 C 5.266 108.278, 2.957 117.900, 1.825 124.500 C 0.095 134.585, -0.145 139.133, 0.319 153 C 0.687 164.022, 1.559 172.720, 2.945 179.199 C 4.087 184.533, 6.413 192.858, 8.114 197.699 C 9.816 202.540, 12.922 210.104, 15.017 214.508 C 17.112 218.912, 21.525 226.627, 24.824 231.651 C 28.123 236.675, 33.977 244.366, 37.832 248.741 C 41.688 253.116, 48.365 259.630, 52.671 263.216 C 56.977 266.802, 64.441 272.301, 69.258 275.436 C 74.076 278.572, 81.726 282.850, 86.258 284.943 C 90.791 287.036, 98.791 290.123, 104.036 291.802 C 109.281 293.481, 117.606 295.658, 122.536 296.640 C 129.255 297.977, 136.133 298.414, 150 298.385 C 165.120 298.353, 170.362 297.948, 178.688 296.167 C 184.292 294.968, 192.842 292.593, 197.688 290.889 C 202.535 289.186, 210.104 286.078, 214.508 283.983 C 218.912 281.888, 226.627 277.475, 231.651 274.176 C 236.675 270.877, 244.366 265.023, 248.741 261.168 C 253.116 257.312, 259.630 250.635, 263.216 246.329 C 266.802 242.023, 272.301 234.559, 275.436 229.742 C 278.572 224.924, 282.850 217.274, 284.943 212.742 C 287.036 208.209, 290.175 200.045, 291.919 194.599 C 293.662 189.154, 295.797 180.154, 296.662 174.599 C 297.528 169.045, 298.633 163.719, 299.118 162.764 C 299.603 161.809, 300 154.421, 300 146.347 C 300 138.273, 299.684 131.983, 299.298 132.369 C 298.912 132.755, 297.849 128.615, 296.935 123.170 C 296.022 117.725, 293.817 108.821, 292.035 103.385 C 290.254 97.948, 286.840 89.401, 284.449 84.392 C 282.058 79.382, 277.402 71.282, 274.102 66.392 C 270.803 61.501, 265.267 54.266, 261.801 50.312 C 258.336 46.359, 252.350 40.351, 248.500 36.960 C 244.650 33.570, 237.200 27.928, 231.944 24.424 C 226.688 20.919, 218.535 16.247, 213.825 14.040 C 209.116 11.833, 201.041 8.646, 195.881 6.957 C 190.722 5.269, 181.393 3.013, 175.151 1.944 C 167.082 0.562, 159.422 0.024, 148.651 0.082 C 138.925 0.134, 129.878 0.801, 123.385 1.945 M 127.555 25.614 C 123.185 26.403, 114.860 28.636, 109.055 30.576 C 103.250 32.517, 95.125 35.920, 91 38.140 C 86.875 40.359, 80 44.692, 75.722 47.769 C 71.444 50.845, 63.916 57.526, 58.993 62.614 C 54.070 67.703, 47.526 75.727, 44.451 80.444 C 41.376 85.162, 37.364 92.279, 35.535 96.261 C 33.706 100.242, 31.028 107.264, 29.585 111.864 C 28.141 116.465, 26.244 124.340, 25.369 129.364 C 24.174 136.231, 23.909 142.349, 24.304 154 C 24.749 167.130, 25.303 171.258, 27.928 181 C 29.864 188.187, 33.236 197.001, 36.919 204.500 C 40.160 211.100, 45.506 220.107, 48.799 224.516 C 52.093 228.924, 58.369 235.954, 62.748 240.137 C 67.126 244.320, 74.040 249.990, 78.112 252.738 C 82.184 255.486, 89.272 259.623, 93.862 261.931 C 98.452 264.239, 106.099 267.387, 110.854 268.927 C 115.609 270.467, 122.650 272.351, 126.500 273.113 C 131.010 274.007, 139.726 274.465, 151 274.402 C 167.244 274.312, 169.361 274.079, 180.500 271.158 C 188.531 269.053, 196.469 266.057, 204.500 262.101 C 211.100 258.849, 220.107 253.494, 224.516 250.201 C 228.924 246.907, 235.954 240.631, 240.137 236.252 C 244.320 231.874, 249.988 224.964, 252.733 220.896 C 255.478 216.828, 259.370 210.229, 261.384 206.232 C 263.397 202.234, 265.955 196.652, 267.068 193.827 C 268.181 191.003, 270.234 184.374, 271.629 179.096 C 273.620 171.562, 274.279 166.170, 274.693 154 C 275.097 142.142, 274.833 136.268, 273.568 129 C 272.659 123.775, 270.335 114.775, 268.405 109 C 266.475 103.225, 263.080 95.125, 260.860 91 C 258.641 86.875, 254.308 80, 251.231 75.722 C 248.155 71.444, 241.474 63.916, 236.386 58.993 C 231.297 54.070, 223.273 47.526, 218.556 44.451 C 213.838 41.376, 206.721 37.364, 202.739 35.535 C 198.758 33.706, 191.752 31.033, 187.171 29.596 C 182.590 28.159, 174.994 26.312, 170.290 25.491 C 165.357 24.631, 156.186 24.038, 148.619 24.090 C 141.404 24.139, 131.925 24.825, 127.555 25.614 M 79 126 L 79 133 83 133 C 86.246 133, 87 132.646, 87 131.122 C 87 130.090, 87.632 128.720, 88.405 128.079 C 89.279 127.354, 92.646 127.024, 97.305 127.206 L 104.799 127.500 91.414 149 C 80.482 166.560, 78.027 171.187, 78.015 174.250 L 78 178 98.500 178 L 119 178 119 169.500 L 119 161 114.500 161 C 110.076 161, 110 161.056, 110 164.300 C 110 166.115, 109.460 168.140, 108.800 168.800 C 108.059 169.541, 104.422 170, 99.300 170 C 94.467 170, 91 169.585, 91 169.006 C 91 168.460, 96.850 158.642, 104 147.189 C 114.543 130.300, 117 125.669, 117 122.682 L 117 119 98 119 L 79 119 79 126 M 126 122.500 C 126 125.567, 126.310 126, 128.500 126 L 131 126 131 147.587 L 131 169.174 128 170.306 C 125.506 171.247, 125 171.992, 125 174.719 L 125 178 136.060 178 L 147.121 178 146.810 174.289 C 146.558 171.273, 146.033 170.471, 144 170 C 142.058 169.551, 141.429 168.692, 141.183 166.158 C 140.937 163.635, 141.722 161.772, 144.638 157.947 C 146.713 155.226, 148.749 153, 149.161 153 C 149.574 153, 151.794 156.222, 154.094 160.161 C 156.394 164.099, 158.326 168.036, 158.388 168.910 C 158.454 169.842, 157.569 170.631, 156.250 170.819 C 154.416 171.080, 154 171.774, 154 174.570 L 154 178 165.500 178 L 177 178 177 174.066 C 177 170.576, 176.706 170.097, 174.396 169.816 C 172.254 169.556, 170.413 167.257, 164.015 156.852 L 156.239 144.203 163.684 135.102 C 169.360 128.163, 171.708 126, 173.565 126 C 175.681 126, 176 125.542, 176 122.500 L 176 119 165.500 119 L 155 119 155 122.500 C 155 125.393, 155.366 126, 157.107 126 C 158.525 126, 159.034 126.468, 158.664 127.433 C 158.361 128.222, 154.601 133.126, 150.307 138.333 L 142.500 147.798 141.741 138.262 C 141.212 131.609, 141.324 128.314, 142.114 127.363 C 142.736 126.613, 144.090 126, 145.122 126 C 146.602 126, 147 125.257, 147 122.500 L 147 119 136.500 119 L 126 119 126 122.500 M 181 122.434 C 181 125.436, 181.345 125.907, 183.750 126.184 C 186.216 126.467, 186.495 126.888, 186.450 130.250 C 186.423 132.313, 186.310 142.091, 186.200 151.981 L 186 169.962 183.500 170.589 C 181.448 171.104, 181 171.825, 181 174.608 L 181 178 193 178 L 205 178 205 174 L 205 170 201 170 L 197 170 197 161.500 L 197 153 208 153 L 219 153 219 148.534 L 219 144.068 208.250 143.784 L 197.500 143.500 197.208 135.750 L 196.916 128 205.958 128 L 215 128 215 131 C 215 133.648, 215.342 134, 217.918 134 C 219.523 134, 221.548 133.727, 222.418 133.393 C 223.649 132.921, 224 131.256, 224 125.893 L 224 119 202.500 119 L 181 119 181 122.434 M 0.402 148 C 0.402 156.525, 0.556 160.012, 0.743 155.750 C 0.931 151.488, 0.931 144.512, 0.743 140.250 C 0.556 135.988, 0.402 139.475, 0.402 148" stroke="none" fill="#0ea726" fill-rule="evenodd"/><path d="M 127.555 25.614 C 123.185 26.403, 114.860 28.636, 109.055 30.576 C 103.250 32.517, 95.125 35.920, 91 38.140 C 86.875 40.359, 80 44.692, 75.722 47.769 C 71.444 50.845, 63.916 57.526, 58.993 62.614 C 54.070 67.703, 47.526 75.727, 44.451 80.444 C 41.376 85.162, 37.364 92.279, 35.535 96.261 C 33.706 100.242, 31.028 107.264, 29.585 111.864 C 28.141 116.465, 26.244 124.340, 25.369 129.364 C 24.174 136.231, 23.909 142.349, 24.304 154 C 24.749 167.130, 25.303 171.258, 27.928 181 C 29.864 188.187, 33.236 197.001, 36.919 204.500 C 40.160 211.100, 45.506 220.107, 48.799 224.516 C 52.093 228.924, 58.369 235.954, 62.748 240.137 C 67.126 244.320, 74.040 249.990, 78.112 252.738 C 82.184 255.486, 89.272 259.623, 93.862 261.931 C 98.452 264.239, 106.099 267.387, 110.854 268.927 C 115.609 270.467, 122.650 272.351, 126.500 273.113 C 131.010 274.007, 139.726 274.465, 151 274.402 C 167.244 274.312, 169.361 274.079, 180.500 271.158 C 188.531 269.053, 196.469 266.057, 204.500 262.101 C 211.100 258.849, 220.107 253.494, 224.516 250.201 C 228.924 246.907, 235.954 240.631, 240.137 236.252 C 244.320 231.874, 249.988 224.964, 252.733 220.896 C 255.478 216.828, 259.370 210.229, 261.384 206.232 C 263.397 202.234, 265.955 196.652, 267.068 193.827 C 268.181 191.003, 270.234 184.374, 271.629 179.096 C 273.620 171.562, 274.279 166.170, 274.693 154 C 275.097 142.142, 274.833 136.268, 273.568 129 C 272.659 123.775, 270.335 114.775, 268.405 109 C 266.475 103.225, 263.080 95.125, 260.860 91 C 258.641 86.875, 254.308 80, 251.231 75.722 C 248.155 71.444, 241.474 63.916, 236.386 58.993 C 231.297 54.070, 223.273 47.526, 218.556 44.451 C 213.838 41.376, 206.721 37.364, 202.739 35.535 C 198.758 33.706, 191.752 31.033, 187.171 29.596 C 182.590 28.159, 174.994 26.312, 170.290 25.491 C 165.357 24.631, 156.186 24.038, 148.619 24.090 C 141.404 24.139, 131.925 24.825, 127.555 25.614 M 79 126 L 79 133 83 133 C 86.246 133, 87 132.646, 87 131.122 C 87 130.090, 87.632 128.720, 88.405 128.079 C 89.279 127.354, 92.646 127.024, 97.305 127.206 L 104.799 127.500 91.414 149 C 80.482 166.560, 78.027 171.187, 78.015 174.250 L 78 178 98.500 178 L 119 178 119 169.500 L 119 161 114.500 161 C 110.076 161, 110 161.056, 110 164.300 C 110 166.115, 109.460 168.140, 108.800 168.800 C 108.059 169.541, 104.422 170, 99.300 170 C 94.467 170, 91 169.585, 91 169.006 C 91 168.460, 96.850 158.642, 104 147.189 C 114.543 130.300, 117 125.669, 117 122.682 L 117 119 98 119 L 79 119 79 126 M 126 122.500 C 126 125.567, 126.310 126, 128.500 126 L 131 126 131 147.587 L 131 169.174 128 170.306 C 125.506 171.247, 125 171.992, 125 174.719 L 125 178 136.060 178 L 147.121 178 146.810 174.289 C 146.558 171.273, 146.033 170.471, 144 170 C 142.058 169.551, 141.429 168.692, 141.183 166.158 C 140.937 163.635, 141.722 161.772, 144.638 157.947 C 146.713 155.226, 148.749 153, 149.161 153 C 149.574 153, 151.794 156.222, 154.094 160.161 C 156.394 164.099, 158.326 168.036, 158.388 168.910 C 158.454 169.842, 157.569 170.631, 156.250 170.819 C 154.416 171.080, 154 171.774, 154 174.570 L 154 178 165.500 178 L 177 178 177 174.066 C 177 170.576, 176.706 170.097, 174.396 169.816 C 172.254 169.556, 170.413 167.257, 164.015 156.852 L 156.239 144.203 163.684 135.102 C 169.360 128.163, 171.708 126, 173.565 126 C 175.681 126, 176 125.542, 176 122.500 L 176 119 165.500 119 L 155 119 155 122.500 C 155 125.393, 155.366 126, 157.107 126 C 158.525 126, 159.034 126.468, 158.664 127.433 C 158.361 128.222, 154.601 133.126, 150.307 138.333 L 142.500 147.798 141.741 138.262 C 141.212 131.609, 141.324 128.314, 142.114 127.363 C 142.736 126.613, 144.090 126, 145.122 126 C 146.602 126, 147 125.257, 147 122.500 L 147 119 136.500 119 L 126 119 126 122.500 M 181 122.434 C 181 125.436, 181.345 125.907, 183.750 126.184 C 186.216 126.467, 186.495 126.888, 186.450 130.250 C 186.423 132.313, 186.310 142.091, 186.200 151.981 L 186 169.962 183.500 170.589 C 181.448 171.104, 181 171.825, 181 174.608 L 181 178 193 178 L 205 178 205 174 L 205 170 201 170 L 197 170 197 161.500 L 197 153 208 153 L 219 153 219 148.534 L 219 144.068 208.250 143.784 L 197.500 143.500 197.208 135.750 L 196.916 128 205.958 128 L 215 128 215 131 C 215 133.648, 215.342 134, 217.918 134 C 219.523 134, 221.548 133.727, 222.418 133.393 C 223.649 132.921, 224 131.256, 224 125.893 L 224 119 202.500 119 L 181 119 181 122.434 M 0.097 173.651 C 0.036 180.616, 0.734 189.061, 1.957 196.151 C 3.033 202.393, 5.331 211.775, 7.063 217 C 8.795 222.225, 12.167 230.599, 14.555 235.608 C 16.944 240.618, 21.598 248.718, 24.898 253.608 C 28.197 258.499, 33.733 265.734, 37.199 269.688 C 40.664 273.641, 46.650 279.649, 50.500 283.040 C 54.350 286.430, 61.800 292.072, 67.056 295.576 C 72.312 299.081, 80.465 303.753, 85.175 305.960 C 89.884 308.167, 97.959 311.354, 103.119 313.043 C 108.278 314.731, 117.607 316.987, 123.849 318.056 C 131.472 319.362, 139.895 320, 149.500 320 C 159.162 320, 167.483 319.365, 175.151 318.043 C 181.393 316.967, 190.775 314.669, 196 312.937 C 201.225 311.205, 209.599 307.833, 214.608 305.445 C 219.618 303.056, 227.718 298.402, 232.608 295.102 C 237.499 291.803, 244.734 286.267, 248.688 282.801 C 252.641 279.336, 258.649 273.350, 262.040 269.500 C 265.430 265.650, 271.072 258.200, 274.576 252.944 C 278.081 247.688, 282.753 239.535, 284.960 234.825 C 287.167 230.116, 290.343 222.071, 292.017 216.948 C 293.691 211.825, 295.771 203.329, 296.640 198.067 C 297.508 192.805, 298.636 187.600, 299.145 186.500 C 299.654 185.400, 299.942 179.325, 299.785 173 C 299.628 166.675, 299.224 162.175, 298.886 163 C 298.548 163.825, 297.556 169.045, 296.680 174.599 C 295.805 180.154, 293.662 189.154, 291.919 194.599 C 290.175 200.045, 287.036 208.209, 284.943 212.742 C 282.850 217.274, 278.572 224.924, 275.436 229.742 C 272.301 234.559, 266.802 242.023, 263.216 246.329 C 259.630 250.635, 253.116 257.312, 248.741 261.168 C 244.366 265.023, 236.675 270.877, 231.651 274.176 C 226.627 277.475, 218.912 281.888, 214.508 283.983 C 210.104 286.078, 202.535 289.186, 197.688 290.889 C 192.842 292.593, 184.292 294.968, 178.688 296.167 C 170.362 297.948, 165.120 298.353, 150 298.385 C 136.133 298.414, 129.255 297.977, 122.536 296.640 C 117.606 295.658, 109.281 293.481, 104.036 291.802 C 98.791 290.123, 90.791 287.036, 86.258 284.943 C 81.726 282.850, 74.076 278.572, 69.258 275.436 C 64.441 272.301, 56.977 266.802, 52.671 263.216 C 48.365 259.630, 41.778 253.218, 38.033 248.968 C 34.288 244.718, 28.997 237.924, 26.277 233.871 C 23.556 229.817, 19.728 223.575, 17.770 220 C 15.812 216.425, 12.614 209.450, 10.663 204.500 C 8.712 199.550, 6.181 192.080, 5.039 187.901 C 3.896 183.721, 2.339 176.296, 1.577 171.401 L 0.194 162.500 0.097 173.651 M 0.385 175 C 0.385 181.875, 0.545 184.688, 0.740 181.250 C 0.936 177.813, 0.936 172.188, 0.740 168.750 C 0.545 165.313, 0.385 168.125, 0.385 175" stroke="none" fill="#046b13" fill-rule="evenodd"/></svg>