<svg xmlns="http://www.w3.org/2000/svg" width="299" height="320" viewBox="0 0 299 320" version="1.1"><path d="M 123.385 1.945 C 61.141 12.905, 12.568 61.876, 1.825 124.500 C -0.799 139.799, -0.303 164.014, 2.945 179.199 C 14.386 232.679, 52.713 275.370, 104.036 291.802 C 120.853 297.186, 129.522 298.428, 150 298.385 C 170.621 298.342, 181.236 296.673, 197.688 290.889 C 250.103 272.462, 288.431 227.428, 296.662 174.599 C 297.528 169.045, 298.633 163.719, 299.118 162.764 C 300.155 160.721, 300.330 131.337, 299.298 132.369 C 298.912 132.755, 297.849 128.615, 296.935 123.170 C 287.979 69.784, 248.246 24.091, 195.881 6.957 C 174.738 0.039, 145.634 -1.973, 123.385 1.945 M 127.555 25.614 C 81.719 33.888, 43.493 67.542, 29.585 111.864 C 25.001 126.473, 23.718 136.710, 24.304 154 C 24.750 167.156, 25.298 171.231, 27.930 180.945 C 35.396 208.494, 51.609 232.719, 73.872 249.587 C 83.937 257.213, 103.278 267.044, 114 269.985 C 158.123 282.088, 202.699 271.439, 235.277 241.015 C 252.754 224.694, 265.163 203.556, 271.629 179.096 C 275.086 166.016, 275.982 142.870, 273.568 129 C 268.805 101.633, 256.485 78.437, 236.386 58.993 C 217.911 41.120, 195.880 29.954, 170.290 25.491 C 159.619 23.630, 138.201 23.692, 127.555 25.614 M 75 120 L 75 128 77.750 128.014 C 79.263 128.021, 81.481 128.290, 82.679 128.612 C 84.563 129.117, 84.902 128.742, 85.179 125.848 L 85.500 122.500 94.666 122.214 L 103.833 121.927 88.916 145.837 C 75.968 166.593, 74 170.292, 74 173.874 L 74 178 97 178 L 120 178 120 168.500 L 120 159 117.250 158.986 C 115.737 158.979, 113.487 158.701, 112.250 158.370 C 110.202 157.821, 109.999 158.114, 109.985 161.633 C 109.976 163.760, 109.639 166.007, 109.235 166.627 C 108.445 167.839, 89 169.076, 89 167.914 C 89 167.542, 95.525 156.749, 103.500 143.931 C 116.323 123.321, 118 120.128, 118 116.313 L 118 112 96.500 112 L 75 112 75 120 M 127.193 116.250 C 127.468 120.053, 127.789 120.533, 130.250 120.816 L 133 121.133 133 144.653 L 133 168.174 130 169.306 C 127.395 170.289, 127 170.937, 127 174.219 L 127 178 139 178 L 151 178 151 173.500 C 151 169.167, 150.889 169, 148 169 C 145.136 169, 145 168.807, 145.006 164.750 C 145.012 161.248, 145.760 159.575, 149.256 155.246 C 154.155 149.181, 153.553 148.876, 160.121 160.741 C 164.212 168.130, 164.377 170, 160.941 170 C 159.343 170, 159 170.707, 159 174 L 159 178 172.057 178 L 185.115 178 184.807 173.750 C 184.534 169.970, 184.202 169.466, 181.804 169.189 C 179.521 168.925, 177.796 166.736, 170.535 154.885 C 165.113 146.036, 162.244 140.412, 162.730 139.585 C 166.033 133.977, 177.001 121.899, 179.750 120.845 C 182.628 119.741, 183 119.163, 183 115.799 L 183 112 171.500 112 L 160 112 160 116.434 C 160 120.312, 160.290 120.907, 162.318 121.184 C 164.415 121.470, 163.699 122.631, 154.818 133.336 L 145 145.172 145 133.534 L 145 121.896 148 120.850 C 150.642 119.929, 151 119.339, 151 115.902 L 151 112 138.943 112 L 126.885 112 127.193 116.250 M 189 116.500 C 189 120.833, 189.111 121, 192 121 L 195 121 195 144.587 L 195 168.174 192 169.306 C 189.395 170.289, 189 170.937, 189 174.219 L 189 178 202.557 178 L 216.115 178 215.807 173.750 C 215.501 169.521, 215.479 169.499, 211.250 169.193 L 207 168.885 207 159.443 L 207 150 219 150 L 231 150 231 145 L 231 140 219 140 L 207 140 207 131 L 207 122 215.418 122 C 225.808 122, 227 122.423, 227 126.107 C 227 128.912, 227.152 129, 232 129 L 237 129 237 120.500 L 237 112 213 112 L 189 112 189 116.500 M 0.402 148 C 0.402 156.525, 0.556 160.012, 0.743 155.750 C 0.931 151.488, 0.931 144.512, 0.743 140.250 C 0.556 135.988, 0.402 139.475, 0.402 148" stroke="none" fill="#fbd343" fill-rule="evenodd"/><path d="M 127.555 25.614 C 81.719 33.888, 43.493 67.542, 29.585 111.864 C 25.001 126.473, 23.718 136.710, 24.304 154 C 24.750 167.156, 25.298 171.231, 27.930 180.945 C 35.396 208.494, 51.609 232.719, 73.872 249.587 C 83.937 257.213, 103.278 267.044, 114 269.985 C 158.123 282.088, 202.699 271.439, 235.277 241.015 C 252.754 224.694, 265.163 203.556, 271.629 179.096 C 275.086 166.016, 275.982 142.870, 273.568 129 C 268.805 101.633, 256.485 78.437, 236.386 58.993 C 217.911 41.120, 195.880 29.954, 170.290 25.491 C 159.619 23.630, 138.201 23.692, 127.555 25.614 M 75 120 L 75 128 77.750 128.014 C 79.263 128.021, 81.481 128.290, 82.679 128.612 C 84.563 129.117, 84.902 128.742, 85.179 125.848 L 85.500 122.500 94.666 122.214 L 103.833 121.927 88.916 145.837 C 75.968 166.593, 74 170.292, 74 173.874 L 74 178 97 178 L 120 178 120 168.500 L 120 159 117.250 158.986 C 115.737 158.979, 113.487 158.701, 112.250 158.370 C 110.202 157.821, 109.999 158.114, 109.985 161.633 C 109.976 163.760, 109.639 166.007, 109.235 166.627 C 108.445 167.839, 89 169.076, 89 167.914 C 89 167.542, 95.525 156.749, 103.500 143.931 C 116.323 123.321, 118 120.128, 118 116.313 L 118 112 96.500 112 L 75 112 75 120 M 127.193 116.250 C 127.468 120.053, 127.789 120.533, 130.250 120.816 L 133 121.133 133 144.653 L 133 168.174 130 169.306 C 127.395 170.289, 127 170.937, 127 174.219 L 127 178 139 178 L 151 178 151 173.500 C 151 169.167, 150.889 169, 148 169 C 145.136 169, 145 168.807, 145.006 164.750 C 145.012 161.248, 145.760 159.575, 149.256 155.246 C 154.155 149.181, 153.553 148.876, 160.121 160.741 C 164.212 168.130, 164.377 170, 160.941 170 C 159.343 170, 159 170.707, 159 174 L 159 178 172.057 178 L 185.115 178 184.807 173.750 C 184.534 169.970, 184.202 169.466, 181.804 169.189 C 179.521 168.925, 177.796 166.736, 170.535 154.885 C 165.113 146.036, 162.244 140.412, 162.730 139.585 C 166.033 133.977, 177.001 121.899, 179.750 120.845 C 182.628 119.741, 183 119.163, 183 115.799 L 183 112 171.500 112 L 160 112 160 116.434 C 160 120.312, 160.290 120.907, 162.318 121.184 C 164.415 121.470, 163.699 122.631, 154.818 133.336 L 145 145.172 145 133.534 L 145 121.896 148 120.850 C 150.642 119.929, 151 119.339, 151 115.902 L 151 112 138.943 112 L 126.885 112 127.193 116.250 M 189 116.500 C 189 120.833, 189.111 121, 192 121 L 195 121 195 144.587 L 195 168.174 192 169.306 C 189.395 170.289, 189 170.937, 189 174.219 L 189 178 202.557 178 L 216.115 178 215.807 173.750 C 215.501 169.521, 215.479 169.499, 211.250 169.193 L 207 168.885 207 159.443 L 207 150 219 150 L 231 150 231 145 L 231 140 219 140 L 207 140 207 131 L 207 122 215.418 122 C 225.808 122, 227 122.423, 227 126.107 C 227 128.912, 227.152 129, 232 129 L 237 129 237 120.500 L 237 112 213 112 L 189 112 189 116.500 M 0.097 173.651 C -0.249 213.421, 19.081 255.370, 50.500 283.040 C 95.335 322.524, 160.211 331.381, 214.608 305.445 C 257.062 285.203, 289.201 243.134, 296.640 198.067 C 297.508 192.805, 298.636 187.600, 299.145 186.500 C 299.654 185.400, 299.942 179.325, 299.785 173 C 299.462 159.973, 298.943 160.240, 296.680 174.599 C 287.249 234.449, 240.097 283.030, 178.688 296.167 C 165.002 299.095, 136.093 299.338, 122.536 296.640 C 58.916 283.976, 11.437 234.816, 1.577 171.401 L 0.194 162.500 0.097 173.651 M 0.385 175 C 0.385 181.875, 0.545 184.688, 0.740 181.250 C 0.936 177.813, 0.936 172.188, 0.740 168.750 C 0.545 165.313, 0.385 168.125, 0.385 175" stroke="none" fill="#fbbb04" fill-rule="evenodd"/></svg>