<svg xmlns="http://www.w3.org/2000/svg" width="299" height="320" viewBox="0 0 299 320" version="1.1"><path d="M 123.385 1.945 C 117.821 2.924, 108.821 5.183, 103.385 6.965 C 97.948 8.746, 89.401 12.160, 84.392 14.551 C 79.382 16.942, 71.282 21.598, 66.392 24.898 C 61.501 28.197, 54.266 33.733, 50.312 37.199 C 46.359 40.664, 40.351 46.650, 36.960 50.500 C 33.570 54.350, 27.928 61.800, 24.424 67.056 C 20.919 72.312, 16.247 80.465, 14.040 85.175 C 11.833 89.884, 8.646 97.959, 6.957 103.119 C 5.269 108.278, 3.013 117.607, 1.944 123.849 C 0.690 131.170, 0.001 139.867, 0.004 148.349 C 0.006 155.582, 0.695 165.775, 1.534 171 C 2.373 176.225, 4.138 184.579, 5.457 189.564 C 6.775 194.549, 9.636 202.762, 11.814 207.813 C 13.991 212.865, 17.656 220.288, 19.957 224.310 C 22.257 228.331, 26.436 234.744, 29.242 238.560 C 32.048 242.377, 39.108 250.225, 44.932 256 C 50.884 261.903, 59.635 269.266, 64.922 272.819 C 70.093 276.295, 78.864 281.305, 84.412 283.952 C 89.961 286.600, 97.425 289.762, 101 290.980 C 104.575 292.198, 112.225 294.289, 118 295.627 C 125.035 297.257, 133.144 298.262, 142.574 298.675 C 151.550 299.068, 160.242 298.841, 166.574 298.049 C 172.033 297.365, 181.450 295.552, 187.500 294.020 C 193.550 292.488, 202.662 289.433, 207.749 287.230 C 212.836 285.028, 220.288 281.344, 224.310 279.043 C 228.331 276.743, 234.744 272.560, 238.560 269.748 C 242.377 266.936, 250.017 260.105, 255.537 254.568 C 261.057 249.030, 268.216 240.730, 271.445 236.123 C 274.675 231.515, 279.715 223.027, 282.645 217.260 C 285.575 211.492, 289.518 201.987, 291.406 196.137 C 293.294 190.287, 295.550 181.738, 296.419 177.140 C 297.289 172.541, 298 167.479, 298 165.890 C 298 164.300, 298.450 163, 299 163 C 299.624 163, 300 157.111, 300 147.333 C 300 138.717, 299.684 131.983, 299.298 132.369 C 298.912 132.755, 297.849 128.615, 296.935 123.170 C 296.022 117.725, 293.817 108.821, 292.035 103.385 C 290.254 97.948, 286.840 89.401, 284.449 84.392 C 282.058 79.382, 277.402 71.282, 274.102 66.392 C 270.803 61.501, 265.267 54.266, 261.801 50.312 C 258.336 46.359, 252.350 40.351, 248.500 36.960 C 244.650 33.570, 237.200 27.928, 231.944 24.424 C 226.688 20.919, 218.535 16.247, 213.825 14.040 C 209.116 11.833, 201.041 8.646, 195.881 6.957 C 190.722 5.269, 181.393 3.013, 175.151 1.944 C 167.082 0.562, 159.422 0.024, 148.651 0.082 C 138.925 0.134, 129.878 0.801, 123.385 1.945 M 128 25.670 C 123.325 26.486, 115.450 28.498, 110.500 30.141 C 105.550 31.784, 97.998 34.880, 93.718 37.022 C 89.438 39.164, 82.688 43.065, 78.718 45.691 C 74.748 48.317, 66.747 55.198, 60.937 60.983 C 55.107 66.787, 48.022 75.085, 45.124 79.500 C 42.237 83.900, 38.151 91.100, 36.045 95.500 C 33.938 99.900, 31.038 107.248, 29.599 111.828 C 28.160 116.409, 26.314 124.284, 25.496 129.328 C 24.677 134.373, 24.006 143.504, 24.004 149.619 C 24.002 155.734, 24.696 164.734, 25.546 169.619 C 26.396 174.504, 28.621 183.077, 30.492 188.671 C 32.362 194.266, 35.316 201.691, 37.056 205.171 C 38.796 208.652, 42.639 215.160, 45.596 219.634 C 48.553 224.108, 54.184 231.207, 58.108 235.409 C 62.033 239.611, 69.126 245.970, 73.872 249.540 C 78.617 253.110, 86.325 257.999, 91 260.405 C 95.675 262.810, 102.875 265.991, 107 267.473 C 111.125 268.955, 118.325 271.033, 123 272.091 C 127.675 273.148, 137.350 274.281, 144.500 274.608 C 153.961 275.041, 160.313 274.771, 167.831 273.616 C 173.513 272.743, 182.815 270.471, 188.502 268.568 C 194.190 266.665, 201.691 263.684, 205.171 261.944 C 208.652 260.204, 215.160 256.361, 219.634 253.404 C 224.108 250.447, 231.207 244.816, 235.409 240.892 C 239.611 236.967, 245.970 229.874, 249.540 225.128 C 253.110 220.383, 258.046 212.610, 260.508 207.856 C 262.970 203.102, 266.542 194.552, 268.447 188.856 C 270.351 183.160, 272.604 174.504, 273.454 169.619 C 274.304 164.734, 275 155.701, 275 149.545 C 275 143.389, 274.286 134.111, 273.414 128.926 C 272.542 123.742, 270.488 115.450, 268.850 110.500 C 267.212 105.550, 264.120 97.998, 261.978 93.718 C 259.836 89.438, 255.935 82.688, 253.309 78.718 C 250.683 74.748, 243.802 66.747, 238.017 60.937 C 232.213 55.107, 223.915 48.022, 219.500 45.124 C 215.100 42.237, 207.900 38.151, 203.500 36.045 C 199.100 33.938, 191.900 31.090, 187.500 29.715 C 183.100 28.340, 175.258 26.492, 170.074 25.608 C 164.634 24.680, 155.541 24.039, 148.574 24.093 C 141.933 24.144, 132.675 24.854, 128 25.670 M 78 126 L 78 133 81.500 133.150 C 83.425 133.233, 85.558 133.345, 86.240 133.400 C 86.922 133.455, 87.713 132.150, 87.997 130.500 L 88.514 127.500 96.381 127.206 C 102.864 126.963, 104.152 127.162, 103.700 128.338 C 103.399 129.123, 97.493 138.922, 90.576 150.114 C 80.299 166.743, 78 171.152, 78 174.232 L 78 178 98.500 178 L 119 178 119 169.601 L 119 161.201 114.500 160.843 L 110 160.486 110 164.274 C 110 166.509, 109.453 168.273, 108.666 168.575 C 107.933 168.856, 103.679 168.954, 99.213 168.793 L 91.093 168.500 104.516 147 C 114.455 131.079, 117.946 124.657, 117.969 122.250 L 118 119 98 119 L 78 119 78 126 M 126.190 122.750 C 126.439 125.762, 126.943 126.563, 128.750 126.820 L 131 127.139 131 148.156 L 131 169.174 128 170.306 C 125.506 171.247, 125 171.992, 125 174.719 L 125 178 136.060 178 L 147.121 178 146.810 174.250 C 146.561 171.238, 146.057 170.437, 144.250 170.180 C 142.326 169.907, 142 169.255, 142.003 165.680 C 142.005 162.290, 142.716 160.676, 145.763 157.143 L 149.520 152.785 153.760 160.195 C 156.092 164.271, 158 168.114, 158 168.735 C 158 169.357, 157.100 170.151, 156 170.500 C 154.512 170.972, 154 172.013, 154 174.567 L 154 178 165.500 178 L 177 178 177 174 C 177 170.429, 176.739 170, 174.566 170 C 172.517 170, 170.931 168.008, 164.566 157.447 C 160.404 150.542, 157 144.657, 157 144.369 C 157 144.081, 160.037 140.053, 163.750 135.419 C 168.353 129.672, 171.375 126.794, 173.250 126.371 C 175.584 125.844, 176 125.240, 176 122.375 L 176 119 165.500 119 L 155 119 155 122.532 C 155 125.096, 155.525 126.261, 156.915 126.782 C 158.614 127.419, 158.049 128.456, 151.925 135.954 C 148.128 140.604, 144.341 145.088, 143.510 145.918 C 142.163 147.265, 142 146.326, 142 137.233 C 142 127.192, 142.038 127.029, 144.500 126.411 C 146.552 125.896, 147 125.175, 147 122.392 L 147 119 136.440 119 L 125.879 119 126.190 122.750 M 181.190 122.750 C 181.439 125.762, 181.943 126.563, 183.750 126.820 L 186 127.139 186 148.550 L 186 169.962 183.500 170.589 C 181.448 171.104, 181 171.825, 181 174.608 L 181 178 193 178 L 205 178 205 174 L 205 170 201 170 L 197 170 197 161.500 L 197 153 208 153 L 219 153 219 148.534 L 219 144.068 208.250 143.784 L 197.500 143.500 197.207 135.710 L 196.914 127.921 205.707 128.210 C 214.475 128.499, 214.501 128.508, 214.816 131.250 C 215.109 133.789, 215.473 134, 219.566 134 L 224 134 224 126.500 L 224 119 202.440 119 L 180.879 119 181.190 122.750 M 0.405 148.500 C 0.406 157.300, 0.559 160.766, 0.745 156.203 C 0.930 151.639, 0.929 144.439, 0.742 140.203 C 0.555 135.966, 0.404 139.700, 0.405 148.500" stroke="none" fill="#9c9c9c" fill-rule="evenodd"/><path d="M 128 25.670 C 123.325 26.486, 115.450 28.498, 110.500 30.141 C 105.550 31.784, 97.998 34.880, 93.718 37.022 C 89.438 39.164, 82.688 43.065, 78.718 45.691 C 74.748 48.317, 66.747 55.198, 60.937 60.983 C 55.107 66.787, 48.022 75.085, 45.124 79.500 C 42.237 83.900, 38.151 91.100, 36.045 95.500 C 33.938 99.900, 31.038 107.248, 29.599 111.828 C 28.160 116.409, 26.314 124.284, 25.496 129.328 C 24.677 134.373, 24.006 143.504, 24.004 149.619 C 24.002 155.734, 24.696 164.734, 25.546 169.619 C 26.396 174.504, 28.621 183.077, 30.492 188.671 C 32.362 194.266, 35.316 201.691, 37.056 205.171 C 38.796 208.652, 42.639 215.160, 45.596 219.634 C 48.553 224.108, 54.184 231.207, 58.108 235.409 C 62.033 239.611, 69.126 245.970, 73.872 249.540 C 78.617 253.110, 86.325 257.999, 91 260.405 C 95.675 262.810, 102.875 265.991, 107 267.473 C 111.125 268.955, 118.325 271.033, 123 272.091 C 127.675 273.148, 137.350 274.281, 144.500 274.608 C 153.961 275.041, 160.313 274.771, 167.831 273.616 C 173.513 272.743, 182.815 270.471, 188.502 268.568 C 194.190 266.665, 201.691 263.684, 205.171 261.944 C 208.652 260.204, 215.160 256.361, 219.634 253.404 C 224.108 250.447, 231.207 244.816, 235.409 240.892 C 239.611 236.967, 245.970 229.874, 249.540 225.128 C 253.110 220.383, 258.046 212.610, 260.508 207.856 C 262.970 203.102, 266.542 194.552, 268.447 188.856 C 270.351 183.160, 272.604 174.504, 273.454 169.619 C 274.304 164.734, 275 155.701, 275 149.545 C 275 143.389, 274.286 134.111, 273.414 128.926 C 272.542 123.742, 270.488 115.450, 268.850 110.500 C 267.212 105.550, 264.120 97.998, 261.978 93.718 C 259.836 89.438, 255.935 82.688, 253.309 78.718 C 250.683 74.748, 243.802 66.747, 238.017 60.937 C 232.213 55.107, 223.915 48.022, 219.500 45.124 C 215.100 42.237, 207.900 38.151, 203.500 36.045 C 199.100 33.938, 191.900 31.090, 187.500 29.715 C 183.100 28.340, 175.258 26.492, 170.074 25.608 C 164.634 24.680, 155.541 24.039, 148.574 24.093 C 141.933 24.144, 132.675 24.854, 128 25.670 M 78 126 L 78 133 81.500 133.150 C 83.425 133.233, 85.558 133.345, 86.240 133.400 C 86.922 133.455, 87.713 132.150, 87.997 130.500 L 88.514 127.500 96.381 127.206 C 102.864 126.963, 104.152 127.162, 103.700 128.338 C 103.399 129.123, 97.493 138.922, 90.576 150.114 C 80.299 166.743, 78 171.152, 78 174.232 L 78 178 98.500 178 L 119 178 119 169.601 L 119 161.201 114.500 160.843 L 110 160.486 110 164.274 C 110 166.509, 109.453 168.273, 108.666 168.575 C 107.933 168.856, 103.679 168.954, 99.213 168.793 L 91.093 168.500 104.516 147 C 114.455 131.079, 117.946 124.657, 117.969 122.250 L 118 119 98 119 L 78 119 78 126 M 126.190 122.750 C 126.439 125.762, 126.943 126.563, 128.750 126.820 L 131 127.139 131 148.156 L 131 169.174 128 170.306 C 125.506 171.247, 125 171.992, 125 174.719 L 125 178 136.060 178 L 147.121 178 146.810 174.250 C 146.561 171.238, 146.057 170.437, 144.250 170.180 C 142.326 169.907, 142 169.255, 142.003 165.680 C 142.005 162.290, 142.716 160.676, 145.763 157.143 L 149.520 152.785 153.760 160.195 C 156.092 164.271, 158 168.114, 158 168.735 C 158 169.357, 157.100 170.151, 156 170.500 C 154.512 170.972, 154 172.013, 154 174.567 L 154 178 165.500 178 L 177 178 177 174 C 177 170.429, 176.739 170, 174.566 170 C 172.517 170, 170.931 168.008, 164.566 157.447 C 160.404 150.542, 157 144.657, 157 144.369 C 157 144.081, 160.037 140.053, 163.750 135.419 C 168.353 129.672, 171.375 126.794, 173.250 126.371 C 175.584 125.844, 176 125.240, 176 122.375 L 176 119 165.500 119 L 155 119 155 122.532 C 155 125.096, 155.525 126.261, 156.915 126.782 C 158.614 127.419, 158.049 128.456, 151.925 135.954 C 148.128 140.604, 144.341 145.088, 143.510 145.918 C 142.163 147.265, 142 146.326, 142 137.233 C 142 127.192, 142.038 127.029, 144.500 126.411 C 146.552 125.896, 147 125.175, 147 122.392 L 147 119 136.440 119 L 125.879 119 126.190 122.750 M 181.190 122.750 C 181.439 125.762, 181.943 126.563, 183.750 126.820 L 186 127.139 186 148.550 L 186 169.962 183.500 170.589 C 181.448 171.104, 181 171.825, 181 174.608 L 181 178 193 178 L 205 178 205 174 L 205 170 201 170 L 197 170 197 161.500 L 197 153 208 153 L 219 153 219 148.534 L 219 144.068 208.250 143.784 L 197.500 143.500 197.207 135.710 L 196.914 127.921 205.707 128.210 C 214.475 128.499, 214.501 128.508, 214.816 131.250 C 215.109 133.789, 215.473 134, 219.566 134 L 224 134 224 126.500 L 224 119 202.440 119 L 180.879 119 181.190 122.750 M 298 165.890 C 298 167.479, 297.289 172.541, 296.419 177.140 C 295.550 181.738, 293.294 190.287, 291.406 196.137 C 289.518 201.987, 285.575 211.492, 282.645 217.260 C 279.715 223.027, 274.675 231.515, 271.445 236.123 C 268.216 240.730, 261.057 249.030, 255.537 254.568 C 250.017 260.105, 242.377 266.936, 238.560 269.748 C 234.744 272.560, 228.331 276.743, 224.310 279.043 C 220.288 281.344, 212.836 285.028, 207.749 287.230 C 202.662 289.433, 193.550 292.488, 187.500 294.020 C 181.450 295.552, 172.033 297.365, 166.574 298.049 C 160.242 298.841, 151.550 299.068, 142.574 298.675 C 133.144 298.262, 125.035 297.257, 118 295.627 C 112.225 294.289, 104.575 292.198, 101 290.980 C 97.425 289.762, 89.961 286.600, 84.412 283.952 C 78.864 281.305, 70.093 276.295, 64.922 272.819 C 59.635 269.266, 50.884 261.903, 44.932 256 C 39.108 250.225, 32.048 242.377, 29.242 238.560 C 26.436 234.744, 22.257 228.331, 19.957 224.310 C 17.656 220.288, 14.015 212.920, 11.866 207.935 C 9.717 202.951, 7.004 195.414, 5.836 191.186 C 4.669 186.959, 2.915 179, 1.939 173.500 L 0.164 163.500 0.082 174.151 C 0.033 180.564, 0.778 189.317, 1.957 196.151 C 3.033 202.393, 5.331 211.775, 7.063 217 C 8.795 222.225, 12.167 230.599, 14.555 235.608 C 16.944 240.618, 21.598 248.718, 24.898 253.608 C 28.197 258.499, 33.733 265.734, 37.199 269.688 C 40.664 273.641, 46.650 279.649, 50.500 283.040 C 54.350 286.430, 61.800 292.072, 67.056 295.576 C 72.312 299.081, 80.465 303.753, 85.175 305.960 C 89.884 308.167, 97.959 311.354, 103.119 313.043 C 108.278 314.731, 117.607 316.987, 123.849 318.056 C 131.472 319.362, 139.895 320, 149.500 320 C 159.162 320, 167.483 319.365, 175.151 318.043 C 181.393 316.967, 190.775 314.669, 196 312.937 C 201.225 311.205, 209.599 307.833, 214.608 305.445 C 219.618 303.056, 227.718 298.402, 232.608 295.102 C 237.499 291.803, 244.734 286.267, 248.688 282.801 C 252.641 279.336, 258.649 273.350, 262.040 269.500 C 265.430 265.650, 271.072 258.200, 274.576 252.944 C 278.081 247.688, 282.753 239.535, 284.960 234.825 C 287.167 230.116, 290.343 222.071, 292.017 216.948 C 293.691 211.825, 295.764 203.329, 296.624 198.067 C 297.484 192.805, 298.595 187.719, 299.093 186.764 C 299.592 185.809, 300 180.071, 300 174.014 C 300 167.338, 299.606 163, 299 163 C 298.450 163, 298 164.300, 298 165.890 M 0.382 175.500 C 0.384 182.100, 0.546 184.670, 0.741 181.211 C 0.937 177.752, 0.936 172.352, 0.738 169.211 C 0.540 166.070, 0.380 168.900, 0.382 175.500" stroke="none" fill="#7c7c7c" fill-rule="evenodd"/></svg>