<svg xmlns="http://www.w3.org/2000/svg" width="299" height="320" viewBox="0 0 299 320" version="1.1"><path d="M 123.385 1.945 C 117.821 2.924, 108.821 5.183, 103.385 6.965 C 97.948 8.746, 89.401 12.160, 84.392 14.551 C 79.382 16.942, 71.282 21.598, 66.392 24.898 C 61.501 28.197, 54.266 33.733, 50.312 37.199 C 46.359 40.664, 40.351 46.650, 36.960 50.500 C 33.570 54.350, 27.928 61.800, 24.424 67.056 C 20.919 72.312, 16.247 80.465, 14.040 85.175 C 11.833 89.884, 8.646 97.959, 6.957 103.119 C 5.269 108.278, 3.013 117.607, 1.944 123.849 C 0.712 131.039, 0 139.881, 0 147.974 C 0 156.362, 0.722 165, 2.101 173.125 C 3.257 179.931, 5.750 190.225, 7.641 196 C 9.532 201.775, 13.325 211, 16.071 216.500 C 18.817 222, 24.086 230.775, 27.782 236 C 31.477 241.225, 38.795 249.775, 44.044 255 C 49.293 260.225, 57.843 267.521, 63.044 271.214 C 68.245 274.907, 77 280.193, 82.500 282.960 C 88 285.728, 96.539 289.350, 101.476 291.009 C 106.413 292.669, 115.413 295.016, 121.476 296.226 C 130.079 297.942, 136.124 298.433, 149 298.463 C 161.019 298.490, 168.216 297.992, 175.500 296.630 C 181 295.602, 190.225 293.222, 196 291.341 C 201.775 289.460, 211 285.675, 216.500 282.929 C 222 280.183, 230.775 274.914, 236 271.218 C 241.225 267.523, 249.775 260.205, 255 254.956 C 260.225 249.707, 267.526 241.157, 271.225 235.956 C 274.923 230.755, 280.400 221.550, 283.396 215.500 C 286.391 209.450, 290.181 200.225, 291.818 195 C 293.456 189.775, 295.556 180.775, 296.487 175 C 297.417 169.225, 298.588 163.719, 299.089 162.764 C 299.590 161.809, 300 154.421, 300 146.347 C 300 138.273, 299.684 131.983, 299.298 132.369 C 298.912 132.755, 297.849 128.615, 296.935 123.170 C 296.022 117.725, 293.817 108.821, 292.035 103.385 C 290.254 97.948, 286.840 89.401, 284.449 84.392 C 282.058 79.382, 277.402 71.282, 274.102 66.392 C 270.803 61.501, 265.267 54.266, 261.801 50.312 C 258.336 46.359, 252.350 40.351, 248.500 36.960 C 244.650 33.570, 237.200 27.928, 231.944 24.424 C 226.688 20.919, 218.535 16.247, 213.825 14.040 C 209.116 11.833, 201.041 8.646, 195.881 6.957 C 190.722 5.269, 181.393 3.013, 175.151 1.944 C 167.082 0.562, 159.422 0.024, 148.651 0.082 C 138.925 0.134, 129.878 0.801, 123.385 1.945 M 127.500 25.597 C 123.100 26.377, 115.979 28.139, 111.676 29.512 C 107.372 30.885, 100.515 33.550, 96.437 35.434 C 92.358 37.318, 85.079 41.423, 80.261 44.557 C 75.442 47.690, 67.071 54.584, 61.658 59.877 C 55.649 65.752, 49.328 73.225, 45.429 79.063 C 41.916 84.323, 37.505 91.973, 35.626 96.063 C 33.747 100.153, 31.033 107.248, 29.596 111.829 C 28.159 116.410, 26.312 124.006, 25.491 128.710 C 24.671 133.414, 24 142.769, 24 149.500 C 24 156.231, 24.697 165.732, 25.548 170.615 C 26.399 175.497, 28.453 183.543, 30.112 188.496 C 31.771 193.448, 34.880 201.002, 37.022 205.282 C 39.164 209.562, 43.065 216.312, 45.691 220.282 C 48.317 224.252, 55.198 232.253, 60.983 238.063 C 66.787 243.893, 75.085 250.978, 79.500 253.876 C 83.900 256.763, 91.100 260.849, 95.500 262.955 C 99.900 265.062, 107.100 267.910, 111.500 269.285 C 115.900 270.660, 123.742 272.508, 128.926 273.392 C 134.111 274.277, 143.369 275, 149.500 275 C 155.631 275, 164.889 274.286, 170.074 273.414 C 175.258 272.542, 183.550 270.488, 188.500 268.850 C 193.450 267.212, 201.002 264.120, 205.282 261.978 C 209.562 259.836, 216.312 255.935, 220.282 253.309 C 224.252 250.683, 232.253 243.802, 238.063 238.017 C 243.893 232.213, 250.978 223.915, 253.876 219.500 C 256.763 215.100, 260.849 207.900, 262.955 203.500 C 265.062 199.100, 267.962 191.752, 269.401 187.171 C 270.840 182.590, 272.688 174.994, 273.509 170.290 C 274.329 165.586, 275 156.251, 275 149.545 C 275 142.839, 274.273 133.122, 273.385 127.953 C 272.497 122.783, 270.680 115.211, 269.347 111.127 C 268.014 107.044, 265.356 100.310, 263.440 96.164 C 261.525 92.018, 257.084 84.323, 253.571 79.063 C 249.672 73.225, 243.351 65.752, 237.342 59.877 C 231.929 54.584, 223.558 47.690, 218.739 44.557 C 213.921 41.423, 206.721 37.364, 202.739 35.535 C 198.758 33.706, 191.752 31.033, 187.171 29.596 C 182.590 28.159, 174.994 26.312, 170.290 25.491 C 165.357 24.631, 156.186 24.038, 148.619 24.090 C 141.404 24.139, 131.900 24.818, 127.500 25.597 M 79 126 L 79 133 83 133 C 86.246 133, 87 132.646, 87 131.122 C 87 130.090, 87.632 128.720, 88.405 128.079 C 89.279 127.354, 92.646 127.024, 97.305 127.206 L 104.799 127.500 91.414 149 C 80.482 166.560, 78.027 171.187, 78.015 174.250 L 78 178 98.500 178 L 119 178 119 169.500 L 119 161 114.500 161 C 110.076 161, 110 161.056, 110 164.300 C 110 166.115, 109.460 168.140, 108.800 168.800 C 108.059 169.541, 104.422 170, 99.300 170 C 94.467 170, 91 169.585, 91 169.006 C 91 168.460, 96.850 158.642, 104 147.189 C 114.543 130.300, 117 125.669, 117 122.682 L 117 119 98 119 L 79 119 79 126 M 126 122.500 C 126 125.567, 126.310 126, 128.500 126 L 131 126 131 147.300 C 131 162.533, 130.658 168.942, 129.800 169.800 C 129.140 170.460, 127.790 171, 126.800 171 C 125.410 171, 125 171.796, 125 174.500 L 125 178 136.060 178 L 147.121 178 146.810 174.289 C 146.558 171.273, 146.033 170.471, 144 170 C 142.058 169.551, 141.429 168.692, 141.183 166.158 C 140.937 163.635, 141.722 161.772, 144.638 157.947 C 146.713 155.226, 148.749 153, 149.161 153 C 149.574 153, 151.794 156.222, 154.094 160.161 C 156.394 164.099, 158.326 168.036, 158.388 168.910 C 158.454 169.842, 157.569 170.631, 156.250 170.819 C 154.416 171.080, 154 171.774, 154 174.570 L 154 178 165.500 178 L 177 178 177 174.066 C 177 170.576, 176.706 170.097, 174.396 169.816 C 172.254 169.556, 170.413 167.257, 164.015 156.852 L 156.239 144.203 163.684 135.102 C 169.360 128.163, 171.708 126, 173.565 126 C 175.681 126, 176 125.542, 176 122.500 L 176 119 165.500 119 L 155 119 155 122.500 C 155 125.393, 155.366 126, 157.107 126 C 158.525 126, 159.034 126.468, 158.664 127.433 C 158.361 128.222, 154.601 133.126, 150.307 138.333 L 142.500 147.798 141.741 138.262 C 141.212 131.609, 141.324 128.314, 142.114 127.363 C 142.736 126.613, 144.090 126, 145.122 126 C 146.602 126, 147 125.257, 147 122.500 L 147 119 136.500 119 L 126 119 126 122.500 M 181 122.434 C 181 125.436, 181.345 125.907, 183.750 126.184 L 186.500 126.500 186.142 148 C 185.945 159.825, 185.581 169.838, 185.333 170.250 C 185.085 170.662, 184.009 171, 182.941 171 C 181.389 171, 181 171.702, 181 174.500 L 181 178 193 178 L 205 178 205 174 L 205 170 201 170 L 197 170 197 161.500 L 197 153 208 153 L 219 153 219 148.500 L 219 144 208 144 L 197 144 197 136 L 197 128 206 128 L 215 128 215 131 C 215 133.648, 215.342 134, 217.918 134 C 219.523 134, 221.548 133.727, 222.418 133.393 C 223.649 132.921, 224 131.256, 224 125.893 L 224 119 202.500 119 L 181 119 181 122.434 M 0.402 148 C 0.402 156.525, 0.556 160.012, 0.743 155.750 C 0.931 151.488, 0.931 144.512, 0.743 140.250 C 0.556 135.988, 0.402 139.475, 0.402 148" stroke="none" fill="#e5e5e5" fill-rule="evenodd"/><path d="M 127.500 25.597 C 123.100 26.377, 115.979 28.139, 111.676 29.512 C 107.372 30.885, 100.515 33.550, 96.437 35.434 C 92.358 37.318, 85.079 41.423, 80.261 44.557 C 75.442 47.690, 67.071 54.584, 61.658 59.877 C 55.649 65.752, 49.328 73.225, 45.429 79.063 C 41.916 84.323, 37.505 91.973, 35.626 96.063 C 33.747 100.153, 31.033 107.248, 29.596 111.829 C 28.159 116.410, 26.312 124.006, 25.491 128.710 C 24.671 133.414, 24 142.769, 24 149.500 C 24 156.231, 24.697 165.732, 25.548 170.615 C 26.399 175.497, 28.453 183.543, 30.112 188.496 C 31.771 193.448, 34.880 201.002, 37.022 205.282 C 39.164 209.562, 43.065 216.312, 45.691 220.282 C 48.317 224.252, 55.198 232.253, 60.983 238.063 C 66.787 243.893, 75.085 250.978, 79.500 253.876 C 83.900 256.763, 91.100 260.849, 95.500 262.955 C 99.900 265.062, 107.100 267.910, 111.500 269.285 C 115.900 270.660, 123.742 272.508, 128.926 273.392 C 134.111 274.277, 143.369 275, 149.500 275 C 155.631 275, 164.889 274.286, 170.074 273.414 C 175.258 272.542, 183.550 270.488, 188.500 268.850 C 193.450 267.212, 201.002 264.120, 205.282 261.978 C 209.562 259.836, 216.312 255.935, 220.282 253.309 C 224.252 250.683, 232.253 243.802, 238.063 238.017 C 243.893 232.213, 250.978 223.915, 253.876 219.500 C 256.763 215.100, 260.849 207.900, 262.955 203.500 C 265.062 199.100, 267.962 191.752, 269.401 187.171 C 270.840 182.590, 272.688 174.994, 273.509 170.290 C 274.329 165.586, 275 156.251, 275 149.545 C 275 142.839, 274.273 133.122, 273.385 127.953 C 272.497 122.783, 270.680 115.211, 269.347 111.127 C 268.014 107.044, 265.356 100.310, 263.440 96.164 C 261.525 92.018, 257.084 84.323, 253.571 79.063 C 249.672 73.225, 243.351 65.752, 237.342 59.877 C 231.929 54.584, 223.558 47.690, 218.739 44.557 C 213.921 41.423, 206.721 37.364, 202.739 35.535 C 198.758 33.706, 191.752 31.033, 187.171 29.596 C 182.590 28.159, 174.994 26.312, 170.290 25.491 C 165.357 24.631, 156.186 24.038, 148.619 24.090 C 141.404 24.139, 131.900 24.818, 127.500 25.597 M 79 126 L 79 133 83 133 C 86.246 133, 87 132.646, 87 131.122 C 87 130.090, 87.632 128.720, 88.405 128.079 C 89.279 127.354, 92.646 127.024, 97.305 127.206 L 104.799 127.500 91.414 149 C 80.482 166.560, 78.027 171.187, 78.015 174.250 L 78 178 98.500 178 L 119 178 119 169.500 L 119 161 114.500 161 C 110.076 161, 110 161.056, 110 164.300 C 110 166.115, 109.460 168.140, 108.800 168.800 C 108.059 169.541, 104.422 170, 99.300 170 C 94.467 170, 91 169.585, 91 169.006 C 91 168.460, 96.850 158.642, 104 147.189 C 114.543 130.300, 117 125.669, 117 122.682 L 117 119 98 119 L 79 119 79 126 M 126 122.500 C 126 125.567, 126.310 126, 128.500 126 L 131 126 131 147.300 C 131 162.533, 130.658 168.942, 129.800 169.800 C 129.140 170.460, 127.790 171, 126.800 171 C 125.410 171, 125 171.796, 125 174.500 L 125 178 136.060 178 L 147.121 178 146.810 174.289 C 146.558 171.273, 146.033 170.471, 144 170 C 142.058 169.551, 141.429 168.692, 141.183 166.158 C 140.937 163.635, 141.722 161.772, 144.638 157.947 C 146.713 155.226, 148.749 153, 149.161 153 C 149.574 153, 151.794 156.222, 154.094 160.161 C 156.394 164.099, 158.326 168.036, 158.388 168.910 C 158.454 169.842, 157.569 170.631, 156.250 170.819 C 154.416 171.080, 154 171.774, 154 174.570 L 154 178 165.500 178 L 177 178 177 174.066 C 177 170.576, 176.706 170.097, 174.396 169.816 C 172.254 169.556, 170.413 167.257, 164.015 156.852 L 156.239 144.203 163.684 135.102 C 169.360 128.163, 171.708 126, 173.565 126 C 175.681 126, 176 125.542, 176 122.500 L 176 119 165.500 119 L 155 119 155 122.500 C 155 125.393, 155.366 126, 157.107 126 C 158.525 126, 159.034 126.468, 158.664 127.433 C 158.361 128.222, 154.601 133.126, 150.307 138.333 L 142.500 147.798 141.741 138.262 C 141.212 131.609, 141.324 128.314, 142.114 127.363 C 142.736 126.613, 144.090 126, 145.122 126 C 146.602 126, 147 125.257, 147 122.500 L 147 119 136.500 119 L 126 119 126 122.500 M 181 122.434 C 181 125.436, 181.345 125.907, 183.750 126.184 L 186.500 126.500 186.142 148 C 185.945 159.825, 185.581 169.838, 185.333 170.250 C 185.085 170.662, 184.009 171, 182.941 171 C 181.389 171, 181 171.702, 181 174.500 L 181 178 193 178 L 205 178 205 174 L 205 170 201 170 L 197 170 197 161.500 L 197 153 208 153 L 219 153 219 148.500 L 219 144 208 144 L 197 144 197 136 L 197 128 206 128 L 215 128 215 131 C 215 133.648, 215.342 134, 217.918 134 C 219.523 134, 221.548 133.727, 222.418 133.393 C 223.649 132.921, 224 131.256, 224 125.893 L 224 119 202.500 119 L 181 119 181 122.434 M 0.083 173.651 C 0.031 180.556, 0.745 189.122, 1.957 196.151 C 3.033 202.393, 5.331 211.775, 7.063 217 C 8.795 222.225, 12.167 230.599, 14.555 235.608 C 16.944 240.618, 21.598 248.718, 24.898 253.608 C 28.197 258.499, 33.733 265.734, 37.199 269.688 C 40.664 273.641, 46.650 279.649, 50.500 283.040 C 54.350 286.430, 61.800 292.072, 67.056 295.576 C 72.312 299.081, 80.465 303.753, 85.175 305.960 C 89.884 308.167, 97.959 311.354, 103.119 313.043 C 108.278 314.731, 117.607 316.987, 123.849 318.056 C 131.472 319.362, 139.895 320, 149.500 320 C 159.162 320, 167.483 319.365, 175.151 318.043 C 181.393 316.967, 190.775 314.669, 196 312.937 C 201.225 311.205, 209.599 307.833, 214.608 305.445 C 219.618 303.056, 227.718 298.402, 232.608 295.102 C 237.499 291.803, 244.734 286.267, 248.688 282.801 C 252.641 279.336, 258.649 273.350, 262.040 269.500 C 265.430 265.650, 271.072 258.200, 274.576 252.944 C 278.081 247.688, 282.753 239.535, 284.960 234.825 C 287.167 230.116, 290.343 222.071, 292.017 216.948 C 293.691 211.825, 295.764 203.329, 296.624 198.067 C 297.484 192.805, 298.595 187.719, 299.093 186.764 C 299.592 185.809, 300 179.756, 300 173.314 C 300 166.871, 299.636 162.027, 299.190 162.550 C 298.745 163.072, 297.579 168.450, 296.599 174.500 C 295.619 180.550, 293.473 189.775, 291.829 195 C 290.186 200.225, 286.391 209.450, 283.396 215.500 C 280.400 221.550, 274.923 230.755, 271.225 235.956 C 267.526 241.157, 260.225 249.707, 255 254.956 C 249.775 260.205, 241.225 267.523, 236 271.218 C 230.775 274.914, 222 280.183, 216.500 282.929 C 211 285.675, 201.775 289.460, 196 291.341 C 190.225 293.222, 181 295.602, 175.500 296.630 C 168.216 297.992, 161.019 298.490, 149 298.463 C 136.124 298.433, 130.079 297.942, 121.476 296.226 C 115.413 295.016, 106.413 292.669, 101.476 291.009 C 96.539 289.350, 88 285.728, 82.500 282.960 C 77 280.193, 68.245 274.907, 63.044 271.214 C 57.843 267.521, 49.293 260.225, 44.044 255 C 38.795 249.775, 31.477 241.225, 27.782 236 C 24.086 230.775, 18.817 222, 16.071 216.500 C 13.325 211, 9.523 201.750, 7.622 195.944 C 5.720 190.137, 3.265 180.237, 2.165 173.944 L 0.165 162.500 0.083 173.651 M 0.385 175 C 0.385 181.875, 0.545 184.688, 0.740 181.250 C 0.936 177.813, 0.936 172.188, 0.740 168.750 C 0.545 165.313, 0.385 168.125, 0.385 175" stroke="none" fill="#c3c3c3" fill-rule="evenodd"/></svg>